<svg width="100" height="100" viewBox="0 0 100 100" fill="none" xmlns="http://www.w3.org/2000/svg">
<path d="M50 55C52.9915 54.9999 55.9148 55.8942 58.3941 57.5681C60.8735 59.2421 62.7957 61.6191 63.9137 64.3938C65.0318 67.1686 65.2947 70.2143 64.6685 73.1395C64.0424 76.0648 62.5559 78.736 60.4 80.81L50.85 90H65V100H35V91.38L53.465 73.605C54.0608 73.0323 54.5053 72.3208 54.7589 71.5343C55.0124 70.7477 55.067 69.9106 54.9179 69.0977C54.7687 68.2849 54.4203 67.5217 53.904 66.8764C53.3877 66.2311 52.7194 65.7239 51.9591 65.4001C51.1988 65.0763 50.37 64.946 49.547 65.0209C48.724 65.0958 47.9323 65.3735 47.2429 65.8292C46.5535 66.2849 45.9878 66.9044 45.5964 67.6322C45.2049 68.3601 45.0001 69.1736 45 70H35C35 66.0218 36.5804 62.2064 39.3934 59.3934C42.2064 56.5804 46.0218 55 50 55V55ZM80 55V75H90V55H100V100H90V85H70V55H80ZM10 50C9.99384 55.9979 11.3391 61.9202 13.936 67.3268C16.5328 72.7335 20.3145 77.4855 25 81.23V93.31C17.3961 88.9228 11.0819 82.61 6.6932 75.0069C2.30445 67.4038 -0.00406352 58.7788 5.36943e-06 50H10ZM50 2.50671e-05C75.925 2.50671e-05 97.245 19.735 99.75 45H89.69C88.6734 36.9386 85.2262 29.3779 79.8071 23.3238C74.3879 17.2697 67.2538 13.0093 59.3538 11.1094C51.4539 9.20941 43.1627 9.76006 35.5833 12.688C28.004 15.616 21.4959 20.7825 16.925 27.5H30V37.5H5.36943e-06V7.50002H10V20C14.652 13.7845 20.69 8.74008 27.634 5.26808C34.578 1.79608 42.2364 -0.00775607 50 2.50671e-05V2.50671e-05Z" fill="#F8DE4B"/>
</svg>
