<svg width="124" height="100" viewBox="0 0 124 100" fill="none" xmlns="http://www.w3.org/2000/svg">
<path d="M123.076 53.8458L107.692 23.0768H84.6148V7.69226C84.6148 3.46152 81.1533 0 76.9226 0H7.69226C3.46152 0 0 3.46152 0 7.69226V69.2303L7.69226 76.9226H17.446C16.0956 79.2613 15.3846 81.9143 15.3845 84.6149C15.3844 87.3155 16.0952 89.9686 17.4455 92.3074C18.7957 94.6462 20.7378 96.5884 23.0766 97.9388C25.4154 99.2891 28.0684 100 30.769 100C33.4696 100 36.1227 99.2891 38.4614 97.9388C40.8002 96.5884 42.7424 94.6462 44.0926 92.3074C45.4428 89.9686 46.1536 87.3155 46.1535 84.6149C46.1534 81.9143 45.4424 79.2613 44.092 76.9226H86.6763C85.3259 79.2613 84.6149 81.9143 84.6148 84.6149C84.6147 87.3155 85.3255 89.9686 86.6758 92.3074C88.026 94.6462 89.9681 96.5884 92.3069 97.9388C94.6457 99.2891 97.2987 100 99.9993 100C102.7 100 105.353 99.2891 107.692 97.9388C110.031 96.5884 111.973 94.6462 113.323 92.3074C114.673 89.9686 115.384 87.3155 115.384 84.6149C115.384 81.9143 114.673 79.2613 113.322 76.9226H123.076V53.8458ZM84.6148 53.8458V30.769H100.561L112.099 53.8458H84.6148Z" fill="#F8DE4B"/>
<path d="M42.02 18C53.06 18 62 26.96 62 38C62 49.04 53.06 58 42.02 58C30.96 58 22 49.04 22 38C22 26.96 30.96 18 42.02 18ZM35.42 47.42L44 38.82V28H40V37.18L32.58 44.6L35.42 47.42V47.42Z" fill="#2766CC"/>
<circle cx="31" cy="85" r="12" fill="#2766CC"/>
<circle cx="100" cy="85" r="12" fill="#2766CC"/>
</svg>
