<svg width="100" height="100" viewBox="0 0 100 100" fill="none" xmlns="http://www.w3.org/2000/svg">
<circle cx="50" cy="50" r="50" fill="#F2F2F2"/>
<g clip-path="url(#clip0)">
<path d="M33.6525 28.3875C33.9576 28.0308 34.3364 27.7444 34.7628 27.548C35.1892 27.3516 35.6531 27.25 36.1225 27.25H63.8775C64.3469 27.25 64.8108 27.3516 65.2372 27.548C65.6636 27.7444 66.0424 28.0308 66.3475 28.3875L74.8267 38.2805C75.5838 39.164 76 40.289 76 41.4525V42.2812C76.0002 43.8899 75.4977 45.4585 74.5629 46.7676C73.6281 48.0768 72.3076 49.0612 70.7859 49.5832C69.2643 50.1052 67.6176 50.1387 66.076 49.6791C64.5344 49.2195 63.1749 48.2898 62.1875 47.0198C61.4665 47.9485 60.5424 48.6999 59.4862 49.2165C58.43 49.7331 57.2695 50.0011 56.0938 50C54.9179 50.0013 53.7574 49.7334 52.7011 49.2168C51.6449 48.7002 50.7209 47.9487 50 47.0198C49.2791 47.9487 48.3551 48.7002 47.2989 49.2168C46.2426 49.7334 45.0821 50.0013 43.9062 50C42.7304 50.0013 41.5699 49.7334 40.5136 49.2168C39.4574 48.7002 38.5334 47.9487 37.8125 47.0198C36.8251 48.2898 35.4656 49.2195 33.924 49.6791C32.3824 50.1387 30.7357 50.1052 29.2141 49.5832C27.6924 49.0612 26.3719 48.0768 25.4371 46.7676C24.5023 45.4585 23.9998 43.8899 24 42.2812V41.4525C24 40.289 24.4162 39.164 25.1733 38.2805L33.6557 28.3842L33.6525 28.3875ZM39.4375 42.2812C39.4375 43.4664 39.9083 44.6031 40.7464 45.4411C41.5844 46.2792 42.7211 46.75 43.9062 46.75C45.0914 46.75 46.2281 46.2792 47.0661 45.4411C47.9042 44.6031 48.375 43.4664 48.375 42.2812C48.375 41.8503 48.5462 41.4369 48.851 41.1322C49.1557 40.8275 49.569 40.6562 50 40.6562C50.431 40.6562 50.8443 40.8275 51.149 41.1322C51.4538 41.4369 51.625 41.8503 51.625 42.2812C51.625 43.4664 52.0958 44.6031 52.9339 45.4411C53.7719 46.2792 54.9086 46.75 56.0938 46.75C57.2789 46.75 58.4156 46.2792 59.2536 45.4411C60.0917 44.6031 60.5625 43.4664 60.5625 42.2812C60.5625 41.8503 60.7337 41.4369 61.0385 41.1322C61.3432 40.8275 61.7565 40.6562 62.1875 40.6562C62.6185 40.6562 63.0318 40.8275 63.3365 41.1322C63.6413 41.4369 63.8125 41.8503 63.8125 42.2812C63.8125 43.4664 64.2833 44.6031 65.1214 45.4411C65.9594 46.2792 67.0961 46.75 68.2812 46.75C69.4664 46.75 70.6031 46.2792 71.4411 45.4411C72.2792 44.6031 72.75 43.4664 72.75 42.2812V41.4525C72.75 41.0652 72.6117 40.6906 72.36 40.3963L63.8775 30.5H36.1225L27.64 40.3963C27.3883 40.6906 27.25 41.0652 27.25 41.4525V42.2812C27.25 43.4664 27.7208 44.6031 28.5589 45.4411C29.3969 46.2792 30.5336 46.75 31.7188 46.75C32.9039 46.75 34.0406 46.2792 34.8786 45.4411C35.7167 44.6031 36.1875 43.4664 36.1875 42.2812C36.1875 41.8503 36.3587 41.4369 36.6635 41.1322C36.9682 40.8275 37.3815 40.6562 37.8125 40.6562C38.2435 40.6562 38.6568 40.8275 38.9615 41.1322C39.2663 41.4369 39.4375 41.8503 39.4375 42.2812V42.2812ZM28.875 51.625C29.306 51.625 29.7193 51.7962 30.024 52.101C30.3288 52.4057 30.5 52.819 30.5 53.25V72.75H33.75V56.5C33.75 55.638 34.0924 54.8114 34.7019 54.2019C35.3114 53.5924 36.138 53.25 37 53.25H46.75C47.612 53.25 48.4386 53.5924 49.0481 54.2019C49.6576 54.8114 50 55.638 50 56.5V72.75H69.5V53.25C69.5 52.819 69.6712 52.4057 69.976 52.101C70.2807 51.7962 70.694 51.625 71.125 51.625C71.556 51.625 71.9693 51.7962 72.274 52.101C72.5788 52.4057 72.75 52.819 72.75 53.25V72.75H74.375C74.806 72.75 75.2193 72.9212 75.524 73.226C75.8288 73.5307 76 73.944 76 74.375C76 74.806 75.8288 75.2193 75.524 75.524C75.2193 75.8288 74.806 76 74.375 76H25.625C25.194 76 24.7807 75.8288 24.476 75.524C24.1712 75.2193 24 74.806 24 74.375C24 73.944 24.1712 73.5307 24.476 73.226C24.7807 72.9212 25.194 72.75 25.625 72.75H27.25V53.25C27.25 52.819 27.4212 52.4057 27.726 52.101C28.0307 51.7962 28.444 51.625 28.875 51.625V51.625ZM37 72.75H46.75V56.5H37V72.75ZM53.25 56.5C53.25 55.638 53.5924 54.8114 54.2019 54.2019C54.8114 53.5924 55.638 53.25 56.5 53.25H63C63.862 53.25 64.6886 53.5924 65.2981 54.2019C65.9076 54.8114 66.25 55.638 66.25 56.5V66.25C66.25 67.112 65.9076 67.9386 65.2981 68.5481C64.6886 69.1576 63.862 69.5 63 69.5H56.5C55.638 69.5 54.8114 69.1576 54.2019 68.5481C53.5924 67.9386 53.25 67.112 53.25 66.25V56.5ZM63 56.5H56.5V66.25H63V56.5Z" fill="#B2B2B2"/>
</g>
<defs>
<clipPath id="clip0">
<rect width="52" height="52" fill="white" transform="translate(24 24)"/>
</clipPath>
</defs>
</svg>
